# xmcd CD database file
#
# Track frame offsets:
#	150
#	19931
#	38321
#	57038
#	75957
#	96890
#	114855
#	130928
#	153137
#	172807
#
# Disc length: 2569 seconds
#
# Revision: 0
# Processed by: cddbd v1.5.2PL0 Copyright (c) Steve Scherf et al.
# Submitted via: CDex 1.51
#
DISCID=5e0a070a
DTITLE=Grupo Mania - 20 Exitos Originales
DYEAR=1900
DGENRE=Merengue
TTITLE0=Como Baila
TTITLE1=Nadie
TTITLE2=A Que Te Pego Mi Mania 
TTITLE3=Linda Eh
TTITLE4=La Voy A Conquistar
TTITLE5=Deja Que La Gente Diga
TTITLE6=Que Loco
TTITLE7=Me Miras Y Te Miro
TTITLE8=Niña Bonita
TTITLE9=Adivina
EXTD=
EXTT0=
EXTT1=
EXTT2=
EXTT3=
EXTT4=
EXTT5=
EXTT6=
EXTT7=
EXTT8=
EXTT9=
PLAYORDER=
